<?xml version="1.0" standalone="no"?>
<!DOCTYPE svg PUBLIC "-//W3C//DTD SVG 20010904//EN"
 "http://www.w3.org/TR/2001/REC-SVG-20010904/DTD/svg10.dtd">
<svg version="1.0" xmlns="http://www.w3.org/2000/svg"
 width="250.000000pt" height="250.000000pt" viewBox="0 0 250.000000 250.000000"
 preserveAspectRatio="xMidYMid meet">

<g transform="translate(0.000000,250.000000) scale(0.100000,-0.100000)"
fill="#000000" stroke="none">
<path d="M1150 2450 c-458 -56 -765 -530 -634 -981 14 -49 723 -1418 734
-1419 7 0 160 295 160 309 0 7 -127 247 -281 534 -155 286 -295 556 -311 600
-70 193 -37 363 98 501 69 71 175 124 276 139 136 19 287 -33 390 -135 100
-100 143 -214 136 -362 -3 -80 -8 -101 -41 -170 -70 -147 -204 -245 -368 -269
-44 -6 -78 -14 -77 -18 14 -31 304 -579 308 -579 3 0 50 87 105 192 359 689
353 676 362 863 4 101 2 134 -16 210 -53 221 -203 414 -395 509 -133 66 -301
94 -446 76z"/>
</g>
</svg>
